<?xml version="1.0" standalone="no"?>
<!DOCTYPE svg PUBLIC "-//W3C//DTD SVG 20010904//EN"
 "http://www.w3.org/TR/2001/REC-SVG-20010904/DTD/svg10.dtd">
<svg version="1.0" xmlns="http://www.w3.org/2000/svg"
 width="1000.000000pt" height="1000.000000pt" viewBox="0 0 1000.000000 1000.000000"
 preserveAspectRatio="xMidYMid meet">
<metadata>
Created by potrace 1.14, written by Peter Selinger 2001-2017
</metadata>
<g transform="translate(0.000000,1000.000000) scale(0.100000,-0.100000)"
fill="#000000" stroke="none">
<path d="M3495 7294 c-147 -33 -276 -104 -385 -214 -84 -84 -137 -164 -177
-270 -44 -117 -57 -203 -50 -326 18 -318 227 -590 534 -695 93 -31 106 -33
238 -33 162 -1 224 13 350 75 154 76 280 202 354 353 61 125 75 189 75 346 0
157 -14 221 -75 346 -95 194 -286 353 -494 409 -87 24 -283 28 -370 9z"/>
<path d="M6201 7299 c-171 -33 -343 -134 -454 -267 -324 -386 -202 -974 248
-1197 113 -56 183 -75 310 -82 366 -21 700 224 795 582 15 59 21 110 21 195 0
144 -22 236 -88 363 -38 74 -65 109 -138 182 -127 127 -243 190 -401 221 -82
15 -223 17 -293 3z"/>
<path d="M3277 4855 c-93 -26 -160 -66 -237 -144 -146 -147 -182 -288 -150
-589 62 -574 343 -1089 789 -1445 235 -187 549 -341 831 -406 229 -53 535 -70
750 -42 484 63 899 267 1241 610 257 258 425 534 528 868 84 268 119 622 76
768 -53 187 -200 333 -380 380 -52 13 -260 15 -1730 14 -1351 -1 -1679 -3
-1718 -14z"/>
</g>
</svg>
